<svg width="21" height="22" viewBox="0 0 21 22" fill="none" xmlns="http://www.w3.org/2000/svg">
<path d="M10.5 1.94434C9.35093 1.94434 8.21312 2.17066 7.15152 2.61039C6.08992 3.05012 5.12533 3.69464 4.31282 4.50715C2.67187 6.14809 1.75 8.37369 1.75 10.6943C1.75 14.5618 4.26125 17.8431 7.735 19.0068C8.1725 19.0768 8.3125 18.8056 8.3125 18.5693V17.0906C5.88875 17.6156 5.3725 15.9181 5.3725 15.9181C4.97 14.9031 4.40125 14.6318 4.40125 14.6318C3.605 14.0893 4.4625 14.1068 4.4625 14.1068C5.3375 14.1681 5.80125 15.0081 5.80125 15.0081C6.5625 16.3381 7.84875 15.9443 8.3475 15.7343C8.42625 15.1656 8.65375 14.7806 8.89875 14.5618C6.95625 14.3431 4.9175 13.5906 4.9175 10.2568C4.9175 9.28559 5.25 8.50684 5.81875 7.88559C5.73125 7.66684 5.425 6.75684 5.90625 5.57559C5.90625 5.57559 6.64125 5.33934 8.3125 6.46809C9.00375 6.27559 9.75625 6.17934 10.5 6.17934C11.2438 6.17934 11.9962 6.27559 12.6875 6.46809C14.3587 5.33934 15.0938 5.57559 15.0938 5.57559C15.575 6.75684 15.2688 7.66684 15.1813 7.88559C15.75 8.50684 16.0825 9.28559 16.0825 10.2568C16.0825 13.5993 14.035 14.3343 12.0838 14.5531C12.3988 14.8243 12.6875 15.3581 12.6875 16.1718V18.5693C12.6875 18.8056 12.8275 19.0856 13.2738 19.0068C16.7475 17.8343 19.25 14.5618 19.25 10.6943C19.25 9.54527 19.0237 8.40745 18.5839 7.34586C18.1442 6.28426 17.4997 5.31966 16.6872 4.50715C15.8747 3.69464 14.9101 3.05012 13.8485 2.61039C12.7869 2.17066 11.6491 1.94434 10.5 1.94434Z" fill="black"/>
</svg>
