<svg width="50" height="51" viewBox="0 0 50 51" fill="none" xmlns="http://www.w3.org/2000/svg">
<path d="M25.0001 4.58105C22.2642 4.58105 19.5551 5.11992 17.0275 6.1669C14.4999 7.21387 12.2032 8.74844 10.2687 10.683C6.36168 14.59 4.16675 19.889 4.16675 25.4144C4.16675 34.6227 10.1459 42.4352 18.4167 45.2061C19.4584 45.3727 19.7917 44.7269 19.7917 44.1644V40.6436C14.0209 41.8936 12.7917 37.8519 12.7917 37.8519C11.8334 35.4352 10.4792 34.7894 10.4792 34.7894C8.58342 33.4977 10.6251 33.5394 10.6251 33.5394C12.7084 33.6852 13.8126 35.6852 13.8126 35.6852C15.6251 38.8519 18.6876 37.9144 19.8751 37.4144C20.0626 36.0602 20.6042 35.1436 21.1876 34.6227C16.5626 34.1019 11.7084 32.3102 11.7084 24.3727C11.7084 22.0602 12.5001 20.2061 13.8542 18.7269C13.6459 18.2061 12.9167 16.0394 14.0626 13.2269C14.0626 13.2269 15.8126 12.6644 19.7917 15.3519C21.4376 14.8936 23.2292 14.6644 25.0001 14.6644C26.7709 14.6644 28.5626 14.8936 30.2084 15.3519C34.1876 12.6644 35.9376 13.2269 35.9376 13.2269C37.0834 16.0394 36.3543 18.2061 36.1459 18.7269C37.5001 20.2061 38.2917 22.0602 38.2917 24.3727C38.2917 32.3311 33.4168 34.0811 28.7709 34.6019C29.5209 35.2477 30.2084 36.5186 30.2084 38.4561V44.1644C30.2084 44.7269 30.5418 45.3936 31.6043 45.2061C39.8751 42.4144 45.8334 34.6227 45.8334 25.4144C45.8334 22.6785 45.2945 19.9694 44.2476 17.4418C43.2006 14.9142 41.666 12.6176 39.7315 10.683C37.7969 8.74844 35.5003 7.21387 32.9727 6.1669C30.445 5.11992 27.736 4.58105 25.0001 4.58105Z" fill="white"/>
</svg>
