<svg width="50" height="51" viewBox="0 0 50 51" fill="none" xmlns="http://www.w3.org/2000/svg">
<path d="M16.2501 4.58105H33.7501C40.4168 4.58105 45.8334 9.99772 45.8334 16.6644V34.1644C45.8334 37.3691 44.5604 40.4425 42.2943 42.7086C40.0282 44.9747 36.9548 46.2477 33.7501 46.2477H16.2501C9.58342 46.2477 4.16675 40.8311 4.16675 34.1644V16.6644C4.16675 13.4597 5.43981 10.3862 7.70587 8.12018C9.97194 5.85412 13.0454 4.58105 16.2501 4.58105ZM15.8334 8.74772C13.8443 8.74772 11.9366 9.5379 10.5301 10.9444C9.12359 12.3509 8.33342 14.2586 8.33342 16.2477V34.5811C8.33342 38.7269 11.6876 42.0811 15.8334 42.0811H34.1667C36.1559 42.0811 38.0635 41.2909 39.4701 39.8844C40.8766 38.4778 41.6668 36.5702 41.6668 34.5811V16.2477C41.6668 12.1019 38.3126 8.74772 34.1667 8.74772H15.8334ZM35.9376 11.8727C36.6283 11.8727 37.2906 12.1471 37.779 12.6355C38.2674 13.1238 38.5418 13.7862 38.5418 14.4769C38.5418 15.1676 38.2674 15.8299 37.779 16.3183C37.2906 16.8067 36.6283 17.0811 35.9376 17.0811C35.2469 17.0811 34.5845 16.8067 34.0962 16.3183C33.6078 15.8299 33.3334 15.1676 33.3334 14.4769C33.3334 13.7862 33.6078 13.1238 34.0962 12.6355C34.5845 12.1471 35.2469 11.8727 35.9376 11.8727ZM25.0001 14.9977C27.7628 14.9977 30.4123 16.0952 32.3658 18.0487C34.3193 20.0022 35.4168 22.6517 35.4168 25.4144C35.4168 28.1771 34.3193 30.8266 32.3658 32.7801C30.4123 34.7336 27.7628 35.8311 25.0001 35.8311C22.2374 35.8311 19.5879 34.7336 17.6344 32.7801C15.6809 30.8266 14.5834 28.1771 14.5834 25.4144C14.5834 22.6517 15.6809 20.0022 17.6344 18.0487C19.5879 16.0952 22.2374 14.9977 25.0001 14.9977ZM25.0001 19.1644C23.3425 19.1644 21.7528 19.8229 20.5807 20.995C19.4086 22.1671 18.7501 23.7568 18.7501 25.4144C18.7501 27.072 19.4086 28.6617 20.5807 29.8338C21.7528 31.0059 23.3425 31.6644 25.0001 31.6644C26.6577 31.6644 28.2474 31.0059 29.4195 29.8338C30.5916 28.6617 31.2501 27.072 31.2501 25.4144C31.2501 23.7568 30.5916 22.1671 29.4195 20.995C28.2474 19.8229 26.6577 19.1644 25.0001 19.1644Z" fill="white"/>
</svg>
