<svg width="50" height="51" viewBox="0 0 50 51" fill="none" xmlns="http://www.w3.org/2000/svg">
<path d="M39.5833 6.66406C40.6884 6.66406 41.7482 7.10305 42.5296 7.88445C43.311 8.66585 43.75 9.72566 43.75 10.8307V39.9974C43.75 41.1025 43.311 42.1623 42.5296 42.9437C41.7482 43.7251 40.6884 44.1641 39.5833 44.1641H10.4167C9.3116 44.1641 8.25179 43.7251 7.47039 42.9437C6.68899 42.1623 6.25 41.1025 6.25 39.9974V10.8307C6.25 9.72566 6.68899 8.66585 7.47039 7.88445C8.25179 7.10305 9.3116 6.66406 10.4167 6.66406H39.5833ZM38.5417 38.9557V27.9141C38.5417 26.1128 37.8261 24.3853 36.5524 23.1116C35.2787 21.8379 33.5513 21.1224 31.75 21.1224C29.9792 21.1224 27.9167 22.2057 26.9167 23.8307V21.5182H21.1042V38.9557H26.9167V28.6849C26.9167 27.0807 28.2083 25.7682 29.8125 25.7682C30.586 25.7682 31.3279 26.0755 31.8749 26.6225C32.4219 27.1695 32.7292 27.9113 32.7292 28.6849V38.9557H38.5417ZM14.3333 18.2474C15.2616 18.2474 16.1518 17.8786 16.8082 17.2223C17.4646 16.5659 17.8333 15.6757 17.8333 14.7474C17.8333 12.8099 16.2708 11.2266 14.3333 11.2266C13.3996 11.2266 12.504 11.5975 11.8437 12.2578C11.1834 12.9181 10.8125 13.8136 10.8125 14.7474C10.8125 16.6849 12.3958 18.2474 14.3333 18.2474ZM17.2292 38.9557V21.5182H11.4583V38.9557H17.2292Z" fill="white"/>
</svg>
