<svg width="27" height="28" viewBox="0 0 27 28" fill="none" xmlns="http://www.w3.org/2000/svg">
<path d="M19.9007 12.7579H4.21875C3.99497 12.7579 3.78036 12.8468 3.62213 13.005C3.4639 13.1633 3.375 13.3779 3.375 13.6017C3.375 13.8254 3.4639 14.04 3.62213 14.1983C3.78036 14.3565 3.99497 14.4454 4.21875 14.4454H19.9007L13.7464 20.598C13.5879 20.7565 13.4989 20.9713 13.4989 21.1954C13.4989 21.4195 13.5879 21.6343 13.7464 21.7928C13.9048 21.9512 14.1197 22.0402 14.3438 22.0402C14.5678 22.0402 14.7827 21.9512 14.9411 21.7928L22.5349 14.199C22.6135 14.1206 22.6758 14.0275 22.7183 13.925C22.7609 13.8225 22.7828 13.7126 22.7828 13.6017C22.7828 13.4907 22.7609 13.3808 22.7183 13.2783C22.6758 13.1758 22.6135 13.0827 22.5349 13.0043L14.9411 5.41053C14.7827 5.25209 14.5678 5.16309 14.3438 5.16309C14.1197 5.16309 13.9048 5.25209 13.7464 5.41053C13.5879 5.56896 13.4989 5.78384 13.4989 6.0079C13.4989 6.23196 13.5879 6.44684 13.7464 6.60528L19.9007 12.7579Z" fill="black"/>
</svg>
