<svg width="30" height="31" viewBox="0 0 30 31" fill="none" xmlns="http://www.w3.org/2000/svg">
<path d="M5 25.9004C4.3125 25.9004 3.72396 25.6556 3.23438 25.166C2.74479 24.6764 2.5 24.0879 2.5 23.4004V8.40039C2.5 7.71289 2.74479 7.12435 3.23438 6.63477C3.72396 6.14518 4.3125 5.90039 5 5.90039H25C25.6875 5.90039 26.276 6.14518 26.7656 6.63477C27.2552 7.12435 27.5 7.71289 27.5 8.40039V23.4004C27.5 24.0879 27.2552 24.6764 26.7656 25.166C26.276 25.6556 25.6875 25.9004 25 25.9004H5ZM15 17.1504L5 10.9004V23.4004H25V10.9004L15 17.1504ZM15 14.6504L25 8.40039H5L15 14.6504ZM5 10.9004V8.40039V23.4004V10.9004Z"  fill="white"/>
</svg>
