<svg width="50" height="50" viewBox="0 0 50 50" fill="none" xmlns="http://www.w3.org/2000/svg">
<rect width="50" height="50" rx="6" fill="#073B4C"/>
<path fill-rule="evenodd" clip-rule="evenodd" d="M17.5741 33.9718L16.7089 30.2475H11.7575L10.8976 33.9718C10.8392 34.2237 10.7317 34.4617 10.5812 34.6722C10.4307 34.8827 10.2401 35.0615 10.0203 35.1985C9.80058 35.3354 9.55594 35.4279 9.30039 35.4705C9.04485 35.5131 8.78339 35.505 8.53096 35.4468C8.27853 35.3885 8.04007 35.2812 7.82919 35.131C7.61831 34.9808 7.43914 34.7905 7.30191 34.5712C7.16468 34.3519 7.07208 34.1077 7.0294 33.8526C6.98672 33.5976 6.99478 33.3366 7.05314 33.0847L10.703 17.3083C10.8888 16.5126 11.339 15.803 11.9801 15.295C12.6213 14.7871 13.4159 14.5106 14.2345 14.5106C15.0531 14.5106 15.8477 14.7871 16.4889 15.295C17.1301 15.803 17.5802 16.5126 17.766 17.3083L21.4159 33.0873C21.4742 33.3392 21.4823 33.6002 21.4396 33.8552C21.3969 34.1103 21.3043 34.3545 21.1671 34.5738C21.0299 34.7932 20.8507 34.9834 20.6398 35.1336C20.429 35.2838 20.1905 35.3911 19.9381 35.4494C19.6856 35.5076 19.4242 35.5157 19.1686 35.4731C18.9131 35.4305 18.6684 35.3381 18.4487 35.2011C18.2289 35.0641 18.0383 34.8853 17.8878 34.6748C17.7373 34.4643 17.6298 34.2263 17.5714 33.9744M14.2319 19.5392L15.8017 26.3106H12.6699L14.2319 19.5392ZM42.5024 16.4684C42.5024 15.9464 42.2947 15.4457 41.9248 15.0765C41.5549 14.7074 41.0533 14.5 40.5303 14.5C40.0072 14.5 39.5056 14.7074 39.1357 15.0765C38.7659 15.4457 38.5581 15.9464 38.5581 16.4684V33.5282C38.5581 34.0503 38.7659 34.5509 39.1357 34.9201C39.5056 35.2892 40.0072 35.4966 40.5303 35.4966C41.0533 35.4966 41.5549 35.2892 41.9248 34.9201C42.2947 34.5509 42.5024 34.0503 42.5024 33.5282V16.4684ZM26.0676 14.5C25.5445 14.5 25.0429 14.7074 24.6731 15.0765C24.3032 15.4457 24.0954 15.9464 24.0954 16.4684V33.5282C24.0954 34.0503 24.3032 34.5509 24.6731 34.9201C25.0429 35.2892 25.5445 35.4966 26.0676 35.4966C26.5907 35.4966 27.0923 35.2892 27.4621 34.9201C27.832 34.5509 28.0398 34.0503 28.0398 33.5282V28.9352H29.3546C31.2724 28.9352 33.1118 28.1748 34.4679 26.8212C35.824 25.4676 36.5859 23.6318 36.5859 21.7176C36.5859 19.8034 35.824 17.9675 34.4679 16.614C33.1118 15.2604 31.2724 14.5 29.3546 14.5H26.0676ZM29.3546 24.9983H28.0398V18.4369H29.3546C30.2263 18.4369 31.0624 18.7825 31.6788 19.3978C32.2952 20.013 32.6415 20.8475 32.6415 21.7176C32.6415 22.5877 32.2952 23.4222 31.6788 24.0374C31.0624 24.6527 30.2263 24.9983 29.3546 24.9983Z" fill="white"/>
</svg>
