<svg width="50" height="50" viewBox="0 0 50 50" fill="none" xmlns="http://www.w3.org/2000/svg">
<g clip-path="url(#clip0_175_2032)">
<path d="M38.2812 -0.5H11.7188C5.24666 -0.5 0 4.74666 0 11.2188V37.7812C0 44.2533 5.24666 49.5 11.7188 49.5H38.2812C44.7533 49.5 50 44.2533 50 37.7812V11.2188C50 4.74666 44.7533 -0.5 38.2812 -0.5Z" fill="#F0DB4F"/>
<path d="M13.1467 41.784L16.9729 39.4684C17.7111 40.7771 18.3826 41.8846 19.9934 41.8846C21.5373 41.8846 22.5107 41.2807 22.5107 38.9314V22.9553H27.2096V38.9979C27.2096 43.8645 24.3568 46.0797 20.1947 46.0797C16.4359 46.0797 14.2541 44.133 13.1465 41.7836M29.7617 41.2805L33.5875 39.0654C34.5947 40.7102 35.9037 41.9184 38.2193 41.9184C40.1664 41.9184 41.4078 40.9449 41.4078 39.6023C41.4078 37.9914 40.1324 37.4207 37.9844 36.4812L36.81 35.9775C33.4199 34.5346 31.1711 32.7221 31.1711 28.8959C31.1711 25.3717 33.8562 22.6865 38.0518 22.6865C41.0389 22.6865 43.1869 23.7271 44.7307 26.4457L41.0723 28.7951C40.2666 27.352 39.3943 26.7814 38.0518 26.7814C36.6756 26.7814 35.8029 27.6541 35.8029 28.7951C35.8029 30.2047 36.6756 30.7754 38.6893 31.6482L39.8639 32.1516C43.8578 33.8635 46.1066 35.6084 46.1066 39.5352C46.1066 43.7645 42.784 46.0801 38.3201 46.0801C33.957 46.0801 31.1377 43.9992 29.7617 41.2805Z" fill="#323330"/>
</g>
<defs>
<clipPath id="clip0_175_2032">
<rect width="50" height="50" fill="white"/>
</clipPath>
</defs>
</svg>
